<svg xmlns="http://www.w3.org/2000/svg" xmlns:xlink="http://www.w3.org/1999/xlink" version="1.1" x="0px" y="0px" viewBox="0 0 100 125" enable-background="new 0 0 100 100" xml:space="preserve"><g><path fill="none" stroke="#000000" stroke-width="4.5283" stroke-linecap="round" stroke-linejoin="round" stroke-miterlimit="10" d="   M95,59.199v-48.68c0-3.126-2.534-5.661-5.66-5.661H10.66C7.534,4.858,5,7.393,5,10.519v78.962c0,3.126,2.534,5.66,5.66,5.66h42.453   V61.745v-1.557H41.227V45.613h11.32V32.736c2.972-14.009,15.566-14.292,15.566-14.292h13.302v12.736c0,0-2.688,0-8.49,0   s-5.661,5.802-5.661,5.802v8.915h13.303l-1.698,14.292h-12.17v34.953H89.34c3.126,0,5.66-2.534,5.66-5.66V74.293"/><path fill="none" stroke="#000000" stroke-width="4.5283" stroke-linejoin="round" stroke-miterlimit="10" d="M53.113,95.142"/><path fill="none" stroke="#000000" stroke-width="4.5283" stroke-linejoin="round" stroke-miterlimit="10" d="M66.698,95.142"/></g><text x="0" y="115" fill="#000000" font-size="5px" font-weight="bold" font-family="'Helvetica Neue', Helvetica, Arial-Unicode, Arial, Sans-serif">Created by Kau Xuan Xi</text><text x="0" y="120" fill="#000000" font-size="5px" font-weight="bold" font-family="'Helvetica Neue', Helvetica, Arial-Unicode, Arial, Sans-serif">from the Noun Project</text></svg>