<svg xmlns="http://www.w3.org/2000/svg" xmlns:xlink="http://www.w3.org/1999/xlink" xmlns:serif="http://www.serif.com/" viewBox="0 0 64 80" version="1.1" xml:space="preserve" style="" x="0px" y="0px" fill-rule="evenodd" clip-rule="evenodd" stroke-linejoin="round" stroke-miterlimit="1.41421"><g><path d="M62,63C61.903,63 61.806,62.986 61.713,62.958L41.713,56.958C41.291,56.831 41,56.44 41,56L41,24.64C41,24.091 41.451,23.64 42,23.64C42.549,23.64 43,24.091 43,24.64L43,55.256L61,60.656L61,20.744L46.732,16.468C46.31,16.341 46.019,15.95 46.019,15.51C46.019,14.961 46.471,14.51 47.02,14.51C47.117,14.51 47.213,14.524 47.307,14.552L62.287,19.042C62.709,19.168 63,19.56 63,20L63,62C63,62.549 62.549,63 62,63Z" style="" fill-rule="nonzero"/><path d="M22,63C21.451,63 21,62.549 21,62L21,20C21,19.56 21.29,19.169 21.712,19.042L28.472,17.012C28.565,16.984 28.662,16.97 28.76,16.97C29.309,16.97 29.76,17.421 29.76,17.97C29.76,18.41 29.47,18.801 29.048,18.928L23,20.744L23,60.656L41,55.256L41,24.64C41,24.091 41.451,23.64 42,23.64C42.549,23.64 43,24.091 43,24.64L43,56C43,56.44 42.709,56.831 42.287,56.958L22.287,62.958C22.194,62.986 22.097,63 22,63Z" style="" fill-rule="nonzero"/><path d="M22,63C21.903,63 21.806,62.986 21.713,62.958L1.713,56.958C1.291,56.831 1,56.44 1,56L1,14C1,14 1,14 1,14C1,13.451 1.451,13 2,13C2.097,13 2.194,13.014 2.287,13.042L22.287,19.042C22.709,19.169 23,19.56 23,20L23,62C23,62.549 22.549,63 22,63ZM3,55.256L21,60.656L21,20.744L3,15.344L3,55.256Z" style="" fill-rule="nonzero"/><path d="M37.357,32C37.054,32 36.767,31.862 36.577,31.625C36.146,31.087 26,18.359 26,12.357C26,12.346 26,12.335 26,12.324C26,6.093 31.127,0.967 37.357,0.967C43.587,0.967 48.714,6.093 48.714,12.324C48.714,12.335 48.714,12.346 48.714,12.357C48.714,18.359 38.569,31.087 38.138,31.625C37.948,31.862 37.661,32 37.357,32ZM37.357,3C32.226,3.006 28.006,7.226 28,12.357C28,16.397 34.164,25.233 37.357,29.38C40.551,25.233 46.714,16.398 46.714,12.357C46.708,7.226 42.488,3.006 37.357,3Z" style="" fill-rule="nonzero"/><path d="M37.357,17.5C37.357,17.5 37.357,17.5 37.357,17.5C34.535,17.5 32.214,15.178 32.214,12.357C32.214,9.535 34.535,7.214 37.357,7.214C40.178,7.214 42.5,9.535 42.5,12.357C42.5,12.357 42.5,12.357 42.5,12.357C42.497,15.177 40.177,17.497 37.357,17.5ZM37.357,9.214C37.357,9.214 37.357,9.214 37.357,9.214C35.633,9.214 34.214,10.633 34.214,12.357C34.214,14.081 35.633,15.5 37.357,15.5C39.081,15.5 40.5,14.082 40.5,12.357C40.498,10.634 39.081,9.216 37.357,9.214Z" style="" fill-rule="nonzero"/></g><text x="0" y="79" fill="#000000" font-size="5px" font-weight="bold" font-family="'Helvetica Neue', Helvetica, Arial-Unicode, Arial, Sans-serif">Created by Andreas Vögele</text><text x="0" y="84" fill="#000000" font-size="5px" font-weight="bold" font-family="'Helvetica Neue', Helvetica, Arial-Unicode, Arial, Sans-serif">from the Noun Project</text></svg>