<svg xmlns="http://www.w3.org/2000/svg" viewBox="0 0 100 125" x="0px" y="0px"><title>50 icon UI UX</title><path d="M19.379,52.039c0-7.945-.172-15.9.074-23.834a8.89,8.89,0,0,1,5.815-8.326c3.988-1.486,8.218-2.939,12.405-3.147a247.523,247.523,0,0,1,26.368.151c3.843.22,7.723,1.678,11.353,3.149a7.96,7.96,0,0,1,4.989,7.237q.557,13.651.707,27.317c.04,3.555-.527,7.113-.607,10.674-.176,7.856-3.814,12.861-11.564,14.237a89.136,89.136,0,0,1-15.582.91c-6.132,0-12.282-.246-18.385-.81A30.671,30.671,0,0,1,25.937,77.2a9.2,9.2,0,0,1-5.467-7.815c-.653-5.755-1.054-11.539-1.562-17.311ZM24,52.85l-.813.026c.438,5.034.824,10.073,1.338,15.1.236,2.318,1.127,4.537,3.4,5.444a25.992,25.992,0,0,0,7.359,1.923c6.359.522,12.745.867,19.124.929A76.5,76.5,0,0,0,67.77,75.4c5.5-.926,8.117-4.018,8.388-9,.628-11.591,1.643-23.167.582-34.8-.555-6.08-2-8.228-7.911-9.812a15.468,15.468,0,0,0-3.424-.607c-8.374-.288-16.76-.847-25.124-.62-4.293.116-8.6,1.476-12.8,2.654-2.357.662-3.609,2.457-3.548,5.287C24.11,36.613,24,44.732,24,52.85Zm24.644,9.479c-8.063-.192-13.79-5.093-14.59-12.486-.759-7.011,4.627-14.189,12.121-16.156,10.5-2.757,20.17,4.6,19.126,14.555C64.464,56.2,56.98,62.528,48.641,62.329Zm-.718-4.218a13.378,13.378,0,0,0,9.155-3.1c5.606-4.716,5.257-12.381-.706-16.277-4.035-2.636-11-1.468-14.871,2.494-3.065,3.136-4.073,7.38-2.46,10.961A9.769,9.769,0,0,0,47.923,58.111Zm20.1-30.221c-1.362-.394-3.091,1.465-2.995,2.954.1,1.547,1.036,2.7,2.544,2.313,1.107-.28,1.99-1.448,3.541-2.667C69.705,29.253,68.982,28.166,68.026,27.89Z"/><text x="0" y="115" fill="#000000" font-size="5px" font-weight="bold" font-family="'Helvetica Neue', Helvetica, Arial-Unicode, Arial, Sans-serif">Created by lutfiadela</text><text x="0" y="120" fill="#000000" font-size="5px" font-weight="bold" font-family="'Helvetica Neue', Helvetica, Arial-Unicode, Arial, Sans-serif">from the Noun Project</text></svg>